<?xml version="1.0" encoding="utf-8"?>
<!-- Generator: Adobe Illustrator 15.0.2, SVG Export Plug-In . SVG Version: 6.00 Build 0)  -->
<!DOCTYPE svg PUBLIC "-//W3C//DTD SVG 1.1//EN" "http://www.w3.org/Graphics/SVG/1.1/DTD/svg11.dtd">
<svg version="1.1" id="Layer_1" xmlns="http://www.w3.org/2000/svg" xmlns:xlink="http://www.w3.org/1999/xlink" x="0px" y="0px"
	 width="841.89px" height="595.28px" viewBox="0 0 841.89 595.28" enable-background="new 0 0 841.89 595.28" xml:space="preserve">
<path fill="#78AE40" d="M376.598,314.597v26.737h88V314.08c-13.456,2.71-28.904,4.252-45.334,4.252
	C403.909,318.332,389.413,316.985,376.598,314.597z"/>
<linearGradient id="SVGID_1_" gradientUnits="userSpaceOnUse" x1="47.4028" y1="491.501" x2="47.4028" y2="566.1467" gradientTransform="matrix(-1 0 0 -1 468 840.668)">
	<stop  offset="0" style="stop-color:#FFFFFF"/>
	<stop  offset="1" style="stop-color:#78AE40"/>
</linearGradient>
<path fill="url(#SVGID_1_)" d="M376.598,253.334v61.263c12.815,2.389,27.312,3.735,42.666,3.735c16.43,0,31.878-1.542,45.334-4.252
	v-60.746H376.598z"/>
<g>
	<path fill="#FFFFFF" d="M450.498,331.254h4.678v-10.81c0-1.25-0.43-2.333-1.289-3.247c-0.951-1.009-2.361-1.513-4.229-1.513
		h-26.911v15.569h4.677v-11.677h9.131v11.677h4.675v-11.677h7.646c1.082,0,1.623,0.54,1.623,1.624V331.254z"/>
	<rect x="413.394" y="315.685" fill="#FFFFFF" width="4.677" height="15.569"/>
	<path fill="#FFFFFF" d="M404.042,325.233c1.026,0,1.54,0.393,1.54,1.177c0,0.802-0.513,1.204-1.54,1.204l-19.742-0.029v3.669
		h20.666c1.046,0,1.922-0.196,2.632-0.587c1.512-0.822,2.269-2.214,2.269-4.174c0-1.455-0.453-2.614-1.358-3.472
		c-0.906-0.859-2.086-1.288-3.542-1.288l-14.842-0.028c-1.028,0-1.541-0.393-1.541-1.178c0-0.783,0.513-1.174,1.541-1.174h18.902
		v-3.669H389.2c-1.027,0-1.904,0.205-2.632,0.615c-1.514,0.859-2.269,2.25-2.269,4.173c0,1.456,0.452,2.608,1.358,3.459
		c0.904,0.85,2.085,1.273,3.542,1.273L404.042,325.233z"/>
	<path d="M447.057,296.922c-1.129-1.13-2.497-1.693-4.102-1.693h-15.011c-1.586,0-2.95,0.563-4.088,1.693
		c-1.14,1.131-1.71,2.497-1.71,4.102v4.537c0,1.588,0.57,2.951,1.71,4.089c1.138,1.14,2.502,1.709,4.088,1.709h15.011
		c1.604,0,2.973-0.569,4.102-1.709c1.13-1.138,1.693-2.501,1.693-4.089v-4.537C448.75,299.419,448.187,298.053,447.057,296.922z
		 M443.71,305.114c0,0.652-0.233,1.213-0.7,1.679c-0.467,0.468-1.025,0.7-1.68,0.7h-11.986c-0.652,0-1.213-0.232-1.68-0.7
		c-0.466-0.466-0.699-1.026-0.699-1.679v-3.866c0-0.652,0.233-1.212,0.699-1.68c0.467-0.467,1.027-0.701,1.68-0.701h11.986
		c0.654,0,1.213,0.234,1.68,0.701c0.467,0.468,0.7,1.027,0.7,1.68V305.114z"/>
	<path d="M398.709,305.31c-1.046,0-1.569,0.393-1.569,1.177c0,0.802,0.523,1.204,1.569,1.204l19.714-0.029v3.669h-25.567v-4.761
		c0-1.455,0.453-2.614,1.358-3.472c0.905-0.859,2.086-1.288,3.542-1.288l14.842-0.028c1.027,0,1.54-0.393,1.54-1.178
		c0-0.783-0.513-1.174-1.54-1.174l-18.874-0.058v-3.668l19.798,0.057c1.026,0,1.905,0.205,2.633,0.615
		c1.513,0.84,2.268,2.231,2.268,4.173c0,1.456-0.453,2.608-1.357,3.459c-0.906,0.85-2.086,1.273-3.543,1.273L398.709,305.31"/>
</g>
</svg>
